<svg xmlns="http://www.w3.org/2000/svg" width="48" height="48"><path d="M12.8 39h22.41A3.8 3.8 0 0 0 39 35.2V12.8A3.81 3.81 0 0 0 35.2 9H12.8A3.81 3.81 0 0 0 9 12.8v22.4a3.81 3.81 0 0 0 3.8 3.8Zm-1.27-26.2a1.27 1.27 0 0 1 1.27-1.27h22.4a1.27 1.27 0 0 1 1.27 1.27v22.4a1.27 1.27 0 0 1-1.27 1.27H12.8a1.27 1.27 0 0 1-1.27-1.27Z"/><path d="M26.17 31.57h7.13a1.27 1.27 0 0 0 0-2.53h-7.13a1.27 1.27 0 1 0 0 2.53zm-9.29-10.88a1.27 1.27 0 0 0 .9.37 1.23 1.23 0 0 0 .89-.37l4.47-4.47a1.26 1.26 0 1 0-1.79-1.78L17.78 18l-2-2A1.27 1.27 0 0 0 14 16a1.26 1.26 0 0 0 0 1.79zm1.67 5.18A4.44 4.44 0 1 0 23 30.3a4.43 4.43 0 0 0-4.45-4.43zm0 6.34a1.91 1.91 0 1 1 1.91-1.91 1.92 1.92 0 0 1-1.91 1.91zm7.62-13.38h7.13a1.27 1.27 0 0 0 0-2.53h-7.13a1.27 1.27 0 1 0 0 2.53z"/></svg>